<?xml version="1.0" encoding="UTF-8" standalone="no"?>
<!-- Created with Inkscape (http://www.inkscape.org/) -->

<svg
   width="2368"
   height="512"
   version="1.1"
   viewBox="0 0 626.53 135.47"
   id="svg9"
   xmlns:xlink="http://www.w3.org/1999/xlink"
   xmlns="http://www.w3.org/2000/svg"
   xmlns:svg="http://www.w3.org/2000/svg">
  <defs
     id="defs9">
    <linearGradient
       id="linearGradient9">
      <stop
         style="stop-color:#b6273e;stop-opacity:1;"
         offset="0"
         id="stop9" />
      <stop
         style="stop-color:#c16c29;stop-opacity:1;"
         offset="1"
         id="stop10" />
    </linearGradient>
    <linearGradient
       xlink:href="#linearGradient9"
       id="linearGradient10"
       x1="220.9044"
       y1="132.95648"
       x2="571.25562"
       y2="652.37354"
       gradientUnits="userSpaceOnUse"
       gradientTransform="translate(-82.815,-324.93)" />
    <filter
       style="color-interpolation-filters:sRGB"
       id="filter11"
       x="-0.05122035"
       y="-0.23702741"
       width="1.1024407"
       height="1.4740548">
      <feGaussianBlur
         stdDeviation="13.371487403100776"
         result="blur"
         id="feGaussianBlur11" />
    </filter>
    <clipPath
       clipPathUnits="userSpaceOnUse"
       id="clipPath3">
      <use
         x="0"
         y="0"
         xlink:href="#g2"
         id="use3" />
    </clipPath>
  </defs>
  <g
     id="layer1">
    <g
       id="g3"
       clip-path="url(#clipPath3)">
      <g
         id="g2">
        <path
           id="rect1"
           style="fill:url(#linearGradient10);fill-opacity:1;paint-order:stroke fill markers"
           d="M 25.40004,0 C 11.328435,0 -7.3e-5,11.32851 -7.3e-5,25.40011 v 84.66978 c 0,14.0716 11.328508,25.40011 25.400113,25.40011 h 575.72992 c 14.0716,0 25.40011,-11.32851 25.40011,-25.40011 V 25.40011 C 626.53007,11.32851 615.20156,0 601.12996,0 Z" />
        <g
           id="g11"
           style="fill:none;stroke:#ffffff;stroke-width:3.96885;stroke-dasharray:none;stroke-opacity:1;filter:url(#filter11)"
           transform="translate(-89.987451,-315.73456)">
          <path
             style="baseline-shift:baseline;display:inline;overflow:visible;opacity:1;vector-effect:none;fill:#ffffff;stroke:none;paint-order:stroke fill markers;enable-background:accumulate;stop-color:#000000;stop-opacity:1"
             d="m 693.14877,315.81386 -580.68876,0.0861 c -4.97447,1.6731 -8.06618,0.25033 -11.92037,4.59806 l 590.84566,3.76947 c 12.9959,-0.0573 25.14153,13.3651 25.14153,26.37163 l -0.009,-9.50442 c 0,-6.8812 -2.3358,-20.20414 -23.36875,-25.32081 z"
             id="path10" />
          <path
             id="path13"
             style="baseline-shift:baseline;display:inline;overflow:visible;opacity:1;vector-effect:none;fill:#000000;stroke:none;paint-order:stroke fill markers;enable-background:accumulate;stop-color:#000000;stop-opacity:1"
             d="m 90.407338,430.44847 c 2.298863,12.74586 11.826382,20.83693 26.975472,20.75661 l 573.7346,-5.2e-4 c 8.31485,-0.8672 13.88644,-2.94856 16.71478,-6.24407 0,0 -574.60979,-0.004 -590.39223,-0.38767 -15.78244,-0.38316 -27.032622,-14.12435 -27.452582,-35.04103 z" />
        </g>
      </g>
    </g>
    <g
       id="g10"
       transform="translate(-81.75664,-318.46303)">
      <path
         id="path2"
         style="fill:#ffffff;fill-opacity:1;stroke-width:2.11669;stroke-linecap:square;paint-order:stroke fill markers"
         d="m 572.39451,339.87001 c -4.10703,5.2e-4 -4.10734,6.16173 -4.10734,14.37673 0,5.38473 -1.027,11.29602 1.02683,15.40358 1.26625,2.53252 3.3893,3.81781 5.16002,4.46908 1.6207,0.59614 2.22597,-0.48332 1.50331,-2.05522 -0.76628,-1.66675 -1.52863,-3.96687 -1.52863,-6.52121 0,-3.20541 1.02667,-9.24256 3.08051,-9.24256 1.46952,0 4.1077,1.02737 6.16153,3.08103 2.05382,2.05366 3.0805,4.10764 3.0805,7.18836 0,1.71964 -0.67731,3.39734 -1.48211,4.78381 -1.19787,2.06356 -0.60123,3.40414 1.55239,2.39888 2.84277,-1.3269 6.09126,-4.35963 6.09126,-11.29055 0,-10.26861 -16.42942,-22.591 -20.53775,-22.59193 z m 78.19043,0 c -4.10756,0 -4.10735,6.16137 -4.10735,14.37673 0,5.38473 -1.02699,11.29602 1.02684,15.40358 1.26626,2.53252 3.38931,3.81781 5.16002,4.46908 1.6207,0.59614 2.22545,-0.48332 1.50278,-2.05522 -0.76626,-1.66675 -1.52862,-3.96687 -1.52862,-6.52121 0,-3.20541 1.0272,-9.24256 3.08102,-9.24256 1.46954,0 4.10771,1.02737 6.16154,3.08103 2.05383,2.05366 3.0805,4.10764 3.0805,7.18836 0,1.71964 -0.67783,3.39734 -1.48263,4.78381 -1.19787,2.06356 -0.6007,3.40414 1.55292,2.39888 2.84276,-1.3269 6.09125,-4.35963 6.09125,-11.29055 0,-10.26901 -16.43072,-22.59193 -20.53827,-22.59193 z m -127.86925,34.24061 c -2.2125,0 -4.00982,0.76049 -5.39256,2.28157 -1.38274,1.52108 -2.45482,3.52628 -3.21539,6.01528 -0.69136,2.489 -1.17507,5.18523 -1.45163,8.08911 -0.27656,2.90389 -0.41497,5.73854 -0.41497,8.50409 0,2.76554 0.13841,5.63493 0.41497,8.60795 0.34575,2.97302 0.89886,5.73873 1.65938,8.29686 0.7605,2.55813 1.83206,4.63229 3.21487,6.2225 1.45194,1.59022 3.24977,2.38493 5.39308,2.38493 2.90382,0 4.90851,-0.76049 6.01477,-2.28156 1.10624,-1.59022 1.72884,-3.5607 1.86712,-5.91142 0.20741,-2.35078 0.3111,-4.73595 0.3111,-7.15581 0,-3.66439 0.55311,-6.60274 1.65936,-8.81519 1.10626,-2.28158 2.83462,-3.42261 5.18534,-3.42261 2.62727,0 4.45933,1.14103 5.49645,3.42261 1.03711,2.21245 1.55601,5.1508 1.55601,8.81519 0,2.41992 0.10368,4.83982 0.31111,7.25968 0.20741,2.35072 0.86421,4.32121 1.97046,5.91142 1.17534,1.52108 3.14581,2.28157 5.91142,2.28157 l -5.2e-4,5.1e-4 c 2.55813,0 4.5286,-0.761 5.91141,-2.28208 1.45192,-1.59021 2.45453,-3.66438 3.00764,-6.22252 0.62223,-2.62727 0.9333,-5.53088 0.9333,-8.71131 0.0692,-6.22253 -0.69135,-11.68445 -2.28157,-16.38596 -1.52107,-4.77071 -3.97571,-8.50468 -7.36355,-11.20114 -3.38766,-2.69642 -7.74297,-4.0443 -13.06672,-4.0443 -2.35072,0 -4.45961,0.41475 -6.32637,1.2444 -1.7977,0.7605 -3.1113,1.58996 -3.94095,2.4888 -0.96798,-3.59526 -3.42261,-5.39257 -7.36356,-5.39257 z m 85.25375,0.72555 c -2.62727,0 -4.6667,0.69154 -6.11864,2.07435 -1.3828,1.31366 -2.38541,3.04203 -3.00765,5.18534 -0.55308,2.14337 -0.89888,4.4938 -1.03716,7.05194 -0.0692,2.48905 -0.10336,4.94369 -0.10336,7.36355 0,3.59544 0.1379,7.08723 0.41445,10.47507 0.27661,3.38779 0.79551,6.39508 1.55602,9.02241 0.76051,2.62727 1.8668,4.73618 3.31874,6.32639 1.52108,1.52108 3.45682,2.28157 5.80754,2.28157 2.489,0 4.39052,-0.58785 5.70419,-1.76324 1.31364,-1.24454 2.21204,-2.83448 2.69602,-4.77037 0.5531,-1.93591 0.86468,-3.94111 0.93382,-6.01529 0.13828,-2.14331 0.20722,-4.11378 0.20722,-5.91141 0,-3.45698 1.03683,-6.18795 3.11101,-8.19299 2.14337,-2.07417 4.49431,-3.11151 7.05246,-3.11151 0.96798,3e-5 1.79742,0.13844 2.48879,0.41497 0.69137,0.27654 1.41764,0.5876 2.17821,0.9333 0.76051,0.27656 1.72838,0.41497 2.90378,0.41497 2.6964,0 4.77057,-0.89891 6.2225,-2.69654 1.52109,-1.79762 2.28158,-3.69863 2.28158,-5.70367 0,-2.35079 -0.79523,-4.45961 -2.38545,-6.32638 -1.59021,-1.86677 -3.52595,-3.31879 -5.80753,-4.35592 -2.28166,-1.10625 -4.52891,-1.65937 -6.74136,-1.65937 -2.62727,0 -5.18508,0.3458 -7.67414,1.03718 -2.41986,0.62223 -4.42507,1.65905 -6.01529,3.11099 -0.41482,-1.72848 -1.38269,-3.00742 -2.90377,-3.83706 -1.52107,-0.89885 -3.21522,-1.34828 -5.08198,-1.34828 z m -27.58504,4.97915 c -2.76555,0 -4.83971,0.79471 -6.22252,2.38493 -1.38278,1.52107 -2.31644,3.94098 -2.80041,7.25968 -0.41484,3.31846 -0.6222,7.57065 -0.6222,12.75612 0.0692,5.18523 0.31124,9.4369 0.72607,12.75561 0.48397,3.24957 1.38288,5.66947 2.69654,7.25969 1.38274,1.59021 3.45691,2.38544 6.22252,2.38544 2.76556,0 4.83972,-0.79523 6.22251,-2.38544 1.38278,-1.59022 2.31592,-4.01012 2.79989,-7.25969 0.48398,-3.31846 0.69134,-7.57014 0.62221,-12.75561 0,-5.18522 -0.2421,-9.43742 -0.72608,-12.75612 -0.48395,-3.3187 -1.41709,-5.73861 -2.79989,-7.25968 -1.31367,-1.59022 -3.3531,-2.38493 -6.11864,-2.38493 z m 78.40231,0 c -2.76555,0 -4.83971,0.79471 -6.22252,2.38493 -1.38278,1.52107 -2.31591,3.94098 -2.7999,7.25968 -0.41484,3.31846 -0.62219,7.57065 -0.62219,12.75612 0.0692,5.18523 0.31072,9.4369 0.72555,12.75561 0.48396,3.24957 1.38288,5.66947 2.69654,7.25969 1.38275,1.59021 3.45691,2.38544 6.22252,2.38544 2.76556,0 4.83972,-0.79523 6.22251,-2.38544 1.38279,-1.59022 2.31645,-4.01012 2.80042,-7.25969 0.48397,-3.31846 0.69133,-7.57014 0.62219,-12.75561 0,-5.18522 -0.24209,-9.43742 -0.72606,-12.75612 -0.48397,-3.3187 -1.4171,-5.73861 -2.7999,-7.25968 -1.31367,-1.59022 -3.35362,-2.38493 -6.11916,-2.38493 z" />
      <path
         id="path8"
         style="font-variation-settings:'wght' 800;fill:#ffffff;fill-opacity:1;paint-order:stroke fill markers"
         d="m 482.17402,354.92064 c -1.27947,0 -2.41379,0.37774 -3.40246,1.13381 -0.98865,0.69793 -1.65718,1.6285 -2.00613,2.79163 l -20.23905,69.44037 c -0.29079,1.04686 -0.29079,2.15147 0,3.3146 0.34893,1.16314 0.98877,2.1229 1.91931,2.87897 0.93046,0.8142 2.09347,1.22114 3.48927,1.22114 1.27948,0 2.4138,-0.37774 3.40246,-1.13381 0.98866,-0.75606 1.65719,-1.68663 2.00613,-2.79163 l 5.60529,-19.23164 14.63377,-50.2082 c 0.34894,-1.105 0.34894,-2.21013 0,-3.31513 -0.34894,-1.16313 -0.98878,-2.1229 -1.91931,-2.87896 -0.87234,-0.8142 -2.03535,-1.22115 -3.48928,-1.22115 z m -73.19217,1.74516 c -1.97733,0 -3.60562,0.63984 -4.88509,1.91931 -1.27947,1.27947 -1.91931,3.08232 -1.91931,5.40859 0,2.32626 0.63984,4.12912 1.91931,5.40859 1.27947,1.27946 2.90776,1.91879 4.88509,1.91879 2.09367,0 3.7803,-0.63933 5.05977,-1.91879 1.27946,-1.27947 1.91931,-3.08233 1.91931,-5.40859 0,-2.32627 -0.63985,-4.12912 -1.91931,-5.40859 -1.27947,-1.27947 -2.9661,-1.91931 -5.05977,-1.91931 z m 18.05826,0 c -1.97733,0 -3.60563,0.63984 -4.88509,1.91931 -1.27947,1.27947 -1.91931,3.08232 -1.91931,5.40859 0,2.32626 0.63984,4.12912 1.91931,5.40859 1.27946,1.27946 2.90776,1.91879 4.88509,1.91879 2.09367,0 3.7803,-0.63933 5.05976,-1.91879 1.27947,-1.27947 1.9188,-3.08233 1.9188,-5.40859 0,-2.32627 -0.63933,-4.12912 -1.9188,-5.40859 -1.27946,-1.27947 -2.96609,-1.91931 -5.05976,-1.91931 z m -145.90734,0.87232 c -1.80287,0 -3.34362,0.63932 -4.62309,1.91879 -1.27947,1.27947 -1.91931,2.82074 -1.91931,4.62361 v 51.46892 c 0,1.80287 0.63984,3.34414 1.91931,4.62361 1.27947,1.27946 2.82022,1.91931 4.62309,1.91931 1.80286,0 3.34413,-0.63985 4.6236,-1.91931 1.27947,-1.27947 1.91931,-2.82074 1.91931,-4.62361 v -8.23691 l 5.05356,-4.11664 11.08539,16.10484 c 0.5816,0.81418 1.3376,1.48323 2.26813,2.00664 0.98874,0.52342 2.00684,0.78499 3.05364,0.78499 1.80241,-2.5e-4 3.34335,-0.6401 4.62257,-1.91931 1.27946,-1.27947 1.91879,-2.82074 1.91879,-4.62361 0,-1.3958 -0.40694,-2.64628 -1.22114,-3.75128 l -11.71534,-16.7565 10.05907,-8.19298 c 1.57026,-1.27947 2.35495,-2.9661 2.35495,-5.05977 0,-1.80286 -0.63933,-3.31493 -1.91879,-4.53626 -1.27947,-1.27947 -2.82074,-1.91931 -4.62361,-1.91931 -1.6866,0 -3.11164,0.49448 -4.27478,1.48315 l -16.66244,13.57211 v -26.30808 c 0,-1.80287 -0.63984,-3.34414 -1.91931,-4.62361 -1.27947,-1.27947 -2.82074,-1.91879 -4.6236,-1.91879 z m 58.62267,17.27224 c -3.315,0 -6.28132,0.61064 -8.89839,1.83197 -2.55893,1.22134 -4.59417,2.90797 -6.10623,5.05977 -1.45394,2.09366 -2.1808,4.50716 -2.1808,7.24056 0,2.26813 0.37774,4.18715 1.13381,5.75741 0.8142,1.57027 1.91932,2.90829 3.31512,4.01329 1.3958,1.105 2.99489,2.06425 4.79776,2.87845 1.861,0.75607 3.80973,1.48345 5.84526,2.18132 1.74474,0.58156 3.19847,1.16306 4.3616,1.74464 1.16315,0.52342 2.03538,1.07573 2.61696,1.6573 0.58157,0.5816 0.87232,1.22144 0.87232,1.91931 0,0.75602 -0.31992,1.42455 -0.95965,2.00613 -0.5816,0.52341 -1.62839,0.7855 -3.14046,0.7855 -1.27947,0 -2.61697,-0.26209 -4.01277,-0.7855 -1.3958,-0.5816 -2.93707,-1.59919 -4.62361,-3.05312 -0.40706,-0.40711 -1.07559,-0.8724 -2.00613,-1.39582 -0.93053,-0.58157 -2.12268,-0.87232 -3.57661,-0.87232 -2.09373,0 -3.66414,0.63985 -4.71094,1.91931 -1.0468,1.27947 -1.57048,2.58784 -1.57048,3.92544 0,1.6284 0.7852,3.31503 2.35547,5.05977 1.6284,1.74473 3.89653,3.19846 6.8044,4.3616 2.90813,1.16313 6.31085,1.74463 10.20738,1.74463 3.72162,-1.1e-4 6.94919,-0.58161 9.68233,-1.74463 2.7916,-1.22127 4.94352,-2.9371 6.45558,-5.1471 1.51207,-2.26814 2.26814,-4.91402 2.26814,-7.93822 0,-1.68653 -0.26157,-3.16946 -0.78499,-4.44893 -0.46526,-1.33767 -1.22133,-2.53033 -2.26813,-3.57713 -0.98867,-1.10493 -2.26836,-2.09338 -3.83862,-2.96578 -1.51207,-0.93047 -3.31492,-1.77356 -5.40859,-2.52963 -2.61707,-0.98869 -4.71064,-1.77389 -6.28091,-2.35547 -1.57027,-0.58158 -2.70459,-1.1344 -3.40246,-1.65782 -0.69787,-0.58153 -1.04647,-1.3084 -1.04647,-2.1808 0,-0.63972 0.23239,-1.22122 0.69765,-1.74464 0.5234,-0.52342 1.48316,-0.78498 2.87896,-0.78498 0.98868,0 1.80308,0.14537 2.44281,0.43616 0.69787,0.29076 1.27938,0.63988 1.74464,1.04699 0.52342,0.4071 0.9887,0.81404 1.39581,1.22114 0.5816,0.52347 1.3668,1.13411 2.35547,1.83198 0.98873,0.63973 2.2387,0.95965 3.75077,0.95965 1.80287,0 3.11175,-0.52368 3.92595,-1.57048 0.87234,-1.04687 1.30848,-2.29735 1.30848,-3.75129 0,-1.97733 -0.72686,-3.78018 -2.1808,-5.40858 -1.39573,-1.6866 -3.34446,-3.05331 -5.84526,-4.10011 -2.4426,-1.0468 -5.23384,-1.56997 -8.37437,-1.56997 z m -79.90769,0.17415 c -1.6866,0 -3.257,0.52369 -4.71094,1.57049 -1.3958,0.98873 -2.61714,2.23921 -3.66394,3.75128 -0.19663,0.28916 -0.38615,0.57799 -0.56898,0.86715 -0.15313,-1.43069 -0.69048,-2.6793 -1.61182,-3.74611 -1.0468,-1.3376 -2.58807,-2.00613 -4.62361,-2.00613 -1.9192,0 -3.54749,0.63932 -4.88509,1.91879 -1.27947,1.27947 -1.91931,2.82074 -1.91931,4.62361 v 33.58585 c 0,1.80287 0.63984,3.34414 1.91931,4.62361 1.27947,1.27946 2.82074,1.91931 4.6236,1.91931 v -5.2e-4 c 1.80287,0 3.34414,-0.63984 4.62361,-1.91931 1.27946,-1.27947 1.91931,-2.82022 1.91931,-4.62309 v -18.23241 c 0,-1.9774 0.26156,-3.63483 0.78498,-4.97243 0.5234,-1.3958 1.39563,-2.44259 2.61696,-3.14045 1.2794,-0.75607 2.99523,-1.13381 5.1471,-1.13381 2.15187,0 3.89632,-0.63984 5.23392,-1.91931 1.3376,-1.27947 2.00664,-2.82074 2.00664,-4.6236 0,-2.03554 -0.63984,-3.63463 -1.91931,-4.79776 -1.27946,-1.16314 -2.93689,-1.74516 -4.97243,-1.74516 z m -54.08691,5.2e-4 c -4.47807,0 -8.43239,1.07599 -11.86366,3.22779 -3.37313,2.09393 -5.99032,4.91437 -7.85139,8.4617 -1.86107,3.54734 -2.79163,7.53099 -2.79163,11.95099 0,4.47807 0.93056,8.54906 2.79163,12.21299 1.86107,3.6058 4.47826,6.45589 7.85139,8.54956 3.4312,2.09367 7.38552,3.14046 11.86366,3.14046 4.5362,0 8.49103,-1.04679 11.86416,-3.14046 3.37314,-2.09373 5.99033,-4.94382 7.8514,-8.54956 1.86106,-3.66386 2.79163,-7.73486 2.79163,-12.21299 0,-4.41973 -0.93057,-8.40339 -2.79163,-11.95099 -1.86107,-3.5476 -4.47826,-6.36804 -7.8514,-8.4617 -3.37306,-2.1518 -7.3279,-3.22779 -11.86416,-3.22779 z m -84.53181,0.43564 c -2.09367,0 -3.69327,0.72687 -4.79827,2.1808 -1.04687,1.3958 -1.56997,2.90787 -1.56997,4.53627 0,0.81421 0.11619,1.54159 0.34882,2.18131 l 12.475,33.23704 c 0.58153,1.51206 1.48296,2.64587 2.70429,3.40194 1.22134,0.75607 2.47182,1.13433 3.75129,1.13433 1.33767,0 2.58763,-0.37826 3.75077,-1.13433 1.22127,-0.8142 2.06488,-1.94801 2.53014,-3.40194 l 6.45558,-19.20757 6.45506,19.20757 c 0.4652,1.45393 1.3088,2.58774 2.53014,3.40194 1.22133,0.75607 2.47182,1.13433 3.75128,1.13433 1.33767,0 2.58764,-0.37826 3.75077,-1.13433 1.22129,-0.756 2.12272,-1.88981 2.70429,-3.40194 l 12.475,-33.23704 c 0.23263,-0.63973 0.34934,-1.36711 0.34934,-2.18131 0,-1.6284 -0.55282,-3.14047 -1.65782,-4.53627 -1.04686,-1.45393 -2.61727,-2.1808 -4.71094,-2.1808 -1.45393,0 -2.7331,0.40695 -3.8381,1.22115 -1.10501,0.756 -1.89021,1.74496 -2.35547,2.9663 l -6.76668,19.10163 -6.31863,-17.88049 c -0.5234,-1.51207 -1.39614,-2.64639 -2.61748,-3.40246 -1.1632,-0.75607 -2.41316,-1.13381 -3.75076,-1.13381 -1.27948,7e-5 -2.52997,0.37781 -3.75129,1.13381 -1.22132,0.756 -2.09406,1.89033 -2.61747,3.40246 l -6.31864,17.88049 -6.76668,-19.10163 c -0.40713,-1.22127 -1.19233,-2.21024 -2.35547,-2.9663 -1.105,-0.8142 -2.38417,-1.22115 -3.8381,-1.22115 z m 271.26505,5.2e-4 c -2.09366,0 -3.69327,0.72686 -4.79827,2.1808 -1.0468,1.3958 -1.56997,2.90787 -1.56997,4.53627 0,0.8142 0.1162,1.54107 0.34882,2.18079 l 12.475,33.23704 c 0.58153,1.51206 1.48296,2.64587 2.7043,3.40194 1.22131,0.75606 2.47183,1.13432 3.75128,1.13433 1.33765,-10e-6 2.58816,-0.37827 3.75128,-1.13433 1.22128,-0.8142 2.06437,-1.94801 2.52963,-3.40194 l 6.45558,-19.20654 6.45558,19.20654 c 0.4652,1.45393 1.30829,2.58774 2.52962,3.40194 1.22133,0.75607 2.47182,1.13433 3.75128,1.13433 1.33767,0 2.58816,-0.37826 3.75129,-1.13433 1.22129,-0.756 2.12272,-1.88981 2.70429,-3.40194 l 12.475,-33.23704 c 0.23263,-0.63973 0.34882,-1.36659 0.34882,-2.18079 0,-1.6284 -0.5523,-3.14047 -1.6573,-4.53627 -1.04687,-1.45394 -2.61727,-2.1808 -4.71094,-2.1808 -1.45393,0 -2.73362,0.40694 -3.83862,1.22114 -1.10501,0.756 -1.89021,1.74445 -2.35547,2.96579 l -6.76668,19.10214 -6.31863,-17.881 c -0.5234,-1.51207 -1.39563,-2.64588 -2.61696,-3.40194 -1.1632,-0.75607 -2.41368,-1.13433 -3.75128,-1.13433 -1.27949,7e-5 -2.52997,0.37833 -3.75129,1.13433 -1.22131,0.756 -2.09354,1.88981 -2.61696,3.40194 l -6.31863,17.881 -6.76719,-19.10214 c -0.40714,-1.22127 -1.19182,-2.20972 -2.35496,-2.96579 -1.105,-0.8142 -2.38468,-1.22114 -3.83862,-1.22114 z m -186.73324,11.51534 c 2.84973,0 5.05998,0.98845 6.63024,2.96578 1.57027,1.97734 2.35547,4.88532 2.35547,8.72372 0,4.01286 -0.7852,7.00787 -2.35547,8.9852 -1.57026,1.97733 -3.78051,2.9663 -6.63024,2.9663 -2.84974,0 -5.05947,-0.98897 -6.62974,-2.9663 -1.57026,-1.97733 -2.35547,-4.97234 -2.35547,-8.9852 0,-3.8384 0.78521,-6.74638 2.35547,-8.72372 1.57027,-1.97733 3.78,-2.96578 6.62974,-2.96578 z" />
    </g>
  </g>
</svg>
